<?xml version="1.0" encoding="UTF-8"?>
<!-- Generated by Pixelmator Pro 3.4.3 -->
<svg width="900" height="300" viewBox="0 0 600 200" xmlns="http://www.w3.org/2000/svg">
    <g id="-1">
        <path id="path1" fill="#ffffff" stroke="none" d="M 128.031204 38.75 C 127.700401 38.794006 127.382103 38.864014 127.031204 39 C 125.564804 39.569 124.671005 40.458008 124.156204 41.781006 C 123.641502 43.104004 123.5 44.86499 123.5 47.281006 C 123.5 49.450989 124.758202 51.531982 126.3125 52.687988 C 127.866798 53.843018 129.723206 54.078979 130.9375 52.625 C 133.050995 50.093994 133.629608 46.77301 133.156204 44 C 132.682907 41.22699 131.145401 39.018005 129 38.75 C 128.693497 38.710999 128.362106 38.705994 128.031204 38.75 Z M 184.688004 54.218994 C 184.662003 54.231995 184.638 54.265991 184.594009 54.312012 C 184.550003 54.359009 184.48201 54.416016 184.406006 54.5 C 182.979004 56.078003 181.99501 57.384003 181.375 58.906006 C 180.755005 60.429016 180.5 62.158997 180.5 64.625 C 180.5 66.406006 181.487 67.997009 182.719009 68.906006 C 183.949997 69.815979 185.421005 70.063995 186.438004 69.187988 C 188.779007 67.167999 189.158997 64.708008 188.625 62.281006 C 188.091003 59.854004 186.658005 57.450989 185.344009 55.562012 C 185.028 55.109009 184.876999 54.763 184.811996 54.531006 C 184.748001 54.299011 184.762009 54.179993 184.688004 54.218994 Z M 128.125 65.687988 C 126.340805 65.837006 125.053101 67.651978 123.968803 69.968994 C 122.884399 72.285004 121.999802 75.126007 121.0625 77.312012 C 120.5541 78.498993 120.298004 79.826996 120.125 81.218994 C 119.952003 82.610992 119.880104 84.052002 119.781204 85.437988 C 119.4571 89.981018 121.400803 93.397003 124.031204 95.218994 C 126.661705 97.039978 129.967499 97.268005 132.375 95.468994 C 134.0383 94.226013 135.140594 92.338013 135.781204 90.125 C 136.421997 87.911987 136.621796 85.363007 136.531204 82.843994 C 136.501099 82.003998 136.460205 81.153992 136.343796 80.312012 C 136.227295 79.471008 136.023499 78.656982 135.6875 77.968994 C 134.596802 75.734985 133.672302 72.578003 132.531204 70.031006 C 131.390198 67.484009 130.020508 65.528992 128.125 65.687988 Z M 183.844009 74.437988 C 183.600998 74.444 183.341003 74.464996 183.094009 74.5 C 177.527008 75.27002 175.139999 81.431 175.561996 87.375 C 175.985001 93.319 179.238998 99.062988 184.969009 99.062012 C 187.449997 99.062012 189.442001 96.627991 190.688004 93.437988 C 191.932999 90.247009 192.406006 86.296021 191.811996 83.312012 C 191.290009 80.682983 190.32901 78.569 189.061996 77.062012 C 187.796005 75.556 186.238998 74.645996 184.561996 74.468994 C 184.322998 74.442993 184.085999 74.431 183.844009 74.437988 Z M 221.938004 103.343994 C 221.059998 103.419006 220.186005 103.752991 219.343994 104.218994 C 218.501999 104.684021 217.682007 105.283997 216.968994 105.875 C 216.136993 106.563995 215.259003 107.276001 214.468994 108.125 C 213.679001 108.973999 212.977005 109.973999 212.561996 111.218994 C 211.919998 113.148987 211.766998 115.298004 211.656006 117.468994 C 211.544998 119.640015 211.483002 121.820007 211 123.843994 C 210.330002 126.648987 208.123001 129.510986 205.625 131.093994 C 203.126999 132.675995 200.333008 132.989014 198.5 130.718994 C 197.473999 129.447998 196.606003 127.958008 195.781006 126.406006 C 194.957001 124.855011 194.178009 123.246002 193.311996 121.75 C 193.212997 122.320007 193.117996 122.891998 193.031006 123.468994 C 192.945007 124.045013 192.867004 124.612 192.781006 125.187988 C 193.061996 121.15799 192.669998 117.384003 191.125 113.843994 C 189.580002 110.303009 186.876999 107.007996 182.531006 103.875 C 180.348007 104.720001 178.544998 106.147003 177.156006 108.187988 C 175.766998 110.227997 174.803711 112.854004 174.343811 116.156006 C 174.156509 117.501007 174.056503 118.847992 174.031204 120.156006 C 174.005997 121.463989 174.042297 122.731995 174.156204 124 C 173.2258 127.140015 172.234207 130.358002 171 133.312012 C 169.765808 136.266998 168.30191 138.955994 166.5 141.156006 C 162.752411 145.733002 157.912903 146.777008 153.281204 145.406006 C 148.649597 144.035004 144.2397 140.27301 141.343811 135.25 C 139.706802 132.410004 138.888702 129.401001 138.406204 126.25 C 137.923798 123.098999 137.776596 119.803009 137.4375 116.406006 C 137.379196 117.075989 137.309998 117.703003 137.25 118.312012 C 137.190002 118.921997 137.120605 119.489014 137.0625 120.093994 C 136.967606 116.052002 136.257996 112.351013 134.6875 109.468994 C 133.117004 106.587006 130.697601 104.550995 127.218803 103.875 C 123.897102 104.669983 121.691299 106.873993 120.343803 109.937988 C 118.996201 113.002014 118.501999 116.903015 118.593803 121.156006 C 118.005905 122.666992 117.565002 124.446014 117 126.031006 C 116.435005 127.617004 115.753502 129.033997 114.6875 129.812012 C 112.569603 131.359009 110.116402 131.980011 107.843803 131.468994 C 105.571098 130.958008 103.482704 129.311005 102.0625 126.312012 C 100.837097 123.725006 100.625198 120.632996 100.343803 117.625 C 100.062302 114.617004 99.695198 111.671997 98.156204 109.406006 C 96.992004 107.691986 95.657303 106.40799 94.25 105.531006 C 92.842697 104.653992 91.367798 104.210022 89.9375 104.218994 C 88.098602 104.229004 86.341003 104.992004 84.875 106.562012 C 83.409012 108.132996 82.225548 110.481995 81.59375 113.718994 C 80.956718 116.981995 80.999901 120.363007 81.40625 123.656006 C 81.812599 126.950012 82.57283 130.178009 83.375 133.218994 C 86.859703 146.428986 93.700401 154.574005 101.5625 157.593994 C 109.424599 160.614014 118.316902 158.497986 126 151.218994 L 125.968803 151.156006 L 125.906204 151.093994 C 125.946404 151.040009 125.997704 150.988007 126.031204 150.937988 C 126.064804 150.886993 126.085503 150.834991 126.125 150.781006 L 126.218803 150.656006 L 126.3125 150.531006 C 126.339699 150.582001 126.351006 150.635986 126.375 150.687988 C 126.399002 150.739014 126.441299 150.761993 126.468803 150.812012 C 126.432503 150.847992 126.381104 150.907013 126.343803 150.937988 C 126.306404 150.967987 126.286301 150.996002 126.25 151.031006 C 126.211205 151.069 126.165001 151.09201 126.125 151.125 C 126.084999 151.15799 126.039001 151.182007 126 151.218994 C 127.864899 153.846985 129.926804 157.09201 132.156204 160.125 C 134.385696 163.15799 136.800598 165.985992 139.343811 167.781006 C 145.803299 172.341003 152.695206 174.04599 159.406204 173 C 166.11731 171.95401 172.63681 168.158997 178.281006 161.75 C 179.636002 160.212006 180.886002 158.466003 182.094009 156.687988 C 183.242996 154.996002 184.32901 153.281006 185.5 151.625 C 185.559998 151.540009 185.626999 151.459015 185.688004 151.375 C 194.380005 159.470001 203.615005 161.076996 211.561996 157.125 C 219.509995 153.173004 226.188004 143.647003 229.843994 129.468994 C 230.300003 127.697998 230.628006 125.850006 230.843994 123.968994 C 231.059006 122.088013 231.160004 120.166992 231.093994 118.281006 C 230.983002 115.125 230.313004 112.480988 229.25 110.218994 C 228.186996 107.957001 226.712006 106.076996 224.968994 104.437988 C 224.490005 103.987 224.011002 103.703003 223.5 103.531006 C 222.988007 103.359009 222.464005 103.299011 221.938004 103.343994 Z"/>
        <g id="g1">
            <path id="path2" fill="#ffffff" stroke="none" d="M 293.437988 153.559998 L 293.437988 123.70401 L 326.653992 123.70401 L 326.653992 114.679993 L 249.373993 114.679993 L 249.373993 123.70401 L 282.205994 123.70401 L 282.205994 153.559998 L 293.437988 153.559998 Z M 317.34198 104.695984 L 317.34198 95.671997 L 270.589996 95.671997 L 270.589996 72.536011 L 259.358002 72.536011 L 259.358002 104.695984 L 317.34198 104.695984 Z"/>
            <path id="path3" fill="#ffffff" stroke="none" d="M 391.93399 67.927979 L 391.93399 153.463989 L 403.070007 153.463989 L 403.070007 67.927979 L 391.93399 67.927979 Z M 384.446014 122.167999 C 373.502014 124.18399 356.51001 124.664001 348.350006 124.664001 L 348.350006 107.287994 L 376.286011 107.287994 L 376.286011 75.223999 L 336.829987 75.223999 L 336.829987 84.151978 L 364.958008 84.151978 L 364.958008 98.359985 L 337.213989 98.359985 L 337.213989 133.880005 L 346.238007 133.880005 C 360.734009 133.880005 376.670013 132.920013 385.694 131.096008 L 384.446014 122.167999 Z"/>
            <path id="path4" fill="#ffffff" stroke="none" d="M 488.701996 152.791992 L 488.701996 143.768005 L 440.798004 143.768005 L 440.798004 138.200012 L 486.109985 138.200012 L 486.109985 116.119995 L 429.56601 116.119995 L 429.56601 124.951996 L 474.973999 124.951996 L 474.973999 130.040009 L 429.56601 130.040009 L 429.56601 152.791992 L 488.701996 152.791992 Z M 458.941986 72.056 L 419.966003 72.056 L 419.966003 81.367981 L 446.653992 81.367981 C 446.269989 83.096008 445.694 84.824005 444.925995 86.359985 L 416.317993 88.279999 L 418.238007 97.687988 L 438.686005 95.384003 C 433.022003 100.951996 425.053986 104.984009 415.742004 106.615997 L 420.734009 115.832001 C 440.894012 110.743988 458.558014 96.440002 458.941986 72.056 Z M 486.109985 111.895996 L 486.109985 67.927979 L 474.973999 67.927979 L 474.973999 86.936005 L 459.134003 86.936005 L 459.134003 96.343994 L 474.973999 96.343994 L 474.973999 111.895996 L 486.109985 111.895996 Z"/>
            <path id="path5" fill="#ffffff" stroke="none" d="M 550.622009 130.424011 C 538.142029 123.895996 530.174011 114.007996 529.790039 96.632019 L 546.590027 96.632019 L 546.590027 87.703979 L 500.98999 87.703979 L 500.98999 96.632019 L 518.174011 96.632019 C 517.885986 113.911987 510.493988 124.471985 496.574005 132.056 L 503.485992 140.216003 C 513.56604 135.320007 522.014038 125.23999 524.126038 116.503998 C 526.814026 124.76001 536.702026 134.743988 544.765991 138.679993 L 550.622009 130.424011 Z M 569.246033 153.463989 L 569.246033 67.927979 L 558.014038 67.927979 L 558.014038 98.264008 L 545.246033 98.264008 L 545.246033 107.191986 L 558.014038 107.191986 L 558.014038 114.872009 L 545.246033 114.872009 L 545.246033 123.895996 L 558.014038 123.895996 L 558.014038 153.463989 L 569.246033 153.463989 Z M 511.070007 82.135986 L 536.798035 82.135986 L 536.798035 73.208008 L 511.070007 73.208008 L 511.070007 82.135986 Z"/>
        </g>
    </g>
</svg>
