<?xml version="1.0" encoding="UTF-8"?>
<!-- Generated by Pixelmator Pro 3.4.3 -->
<svg width="900" height="300" viewBox="0 0 600 200" xmlns="http://www.w3.org/2000/svg">
    <g id="-1">
        <path id="path1" fill="#d868bb" stroke="none" d="M 221.932999 103.351013 C 220.179001 103.501007 218.401001 104.697021 216.973999 105.877991 C 215.309998 107.255005 213.397003 108.71701 212.569 111.205994 C 211.283997 115.06601 211.966003 119.796997 211 123.843994 C 209.660995 129.45401 202.171997 135.248993 198.505997 130.709015 C 196.455002 128.167999 195.049011 124.729004 193.317001 121.737 C 193.117996 122.876007 192.957001 124.036011 192.786011 125.187012 C 192.598007 127.888 192.112 130.707001 191.471008 133.657013 C 189.984009 140.494995 188.824997 146.563995 185.513 151.622986 C 183.01001 147.608002 180.294998 143.10199 178.113007 138.200012 C 178.07901 138.117004 178.036011 138.044006 178.001999 137.960999 C 177.990005 137.931 177.98201 137.898987 177.971008 137.869995 C 176.080002 133.556 174.610809 128.946014 174.167709 124.014008 C 172.3069 130.292999 170.102203 136.770996 166.498505 141.17099 C 159.003311 150.324005 147.120209 145.286987 141.328201 135.23999 C 138.054199 129.559998 138.100403 123.191986 137.422302 116.39801 C 137.305695 117.738007 137.182098 118.899994 137.065796 120.109009 C 137.348007 132.127991 132.002304 146.977997 126.283005 151.088013 C 126.271103 151.06601 126.255302 151.040985 126.243401 151.019012 C 126.165802 151.093994 126.083603 151.149994 126.005699 151.223999 C 129.735504 156.480011 134.245407 164.187012 139.331711 167.778015 C 152.250702 176.89801 166.991104 174.562012 178.279999 161.743988 C 180.988998 158.666992 183.230011 154.824005 185.703003 151.360992 C 203.087006 167.549988 222.529007 157.824005 229.839996 129.467987 C 230.753006 125.927002 231.225006 122.05899 231.091995 118.287994 C 230.869995 111.976013 228.470993 107.722992 224.983994 104.444 C 224.026993 103.544006 222.985992 103.260986 221.932999 103.351013 Z"/>
        <path id="path2" fill="#f57e81" stroke="none" d="M 126.124603 150.779999 C 126.045601 150.886993 125.990898 150.980011 125.910706 151.088013 C 125.940498 151.128998 125.9757 151.182007 126.005699 151.223999 C 126.083603 151.149994 126.165802 151.093994 126.243401 151.019012 C 126.203903 150.947998 126.1642 150.852997 126.124603 150.779999 Z"/>
        <path id="path3" fill="#f57e81" stroke="none" d="M 89.9338 104.205017 C 86.255997 104.226013 82.86274 107.26001 81.599144 113.734009 C 80.325089 120.260986 81.785332 127.131989 83.389671 133.213013 C 90.3591 159.632996 110.639603 165.78299 126.005699 151.223999 C 125.9757 151.182007 125.940498 151.128998 125.910706 151.088013 C 125.990898 150.980011 126.045601 150.886993 126.124603 150.779999 C 122.737503 144.528015 118.820404 131.839996 118.590103 121.167999 C 117.414398 124.188995 116.808304 128.240997 114.6763 129.798004 C 110.440605 132.891998 104.888 132.299011 102.0476 126.303009 C 99.596901 121.128998 101.235397 113.950012 98.157501 109.419006 C 95.829102 105.990997 92.794304 104.187988 89.9338 104.205017 Z"/>
        <path id="path4" fill="#d6309d" stroke="none" d="M 182.542007 103.863007 C 178.175003 105.552002 175.262009 109.56601 174.34201 116.170013 C 173.967606 118.859009 173.939697 121.477997 174.167709 124.014008 C 174.234009 123.790009 174.308197 123.56601 174.373596 123.342987 C 175.574997 128.184998 176.186005 133.416992 177.971008 137.869995 C 178.018997 137.979004 178.065002 138.091003 178.113007 138.200012 C 180.076004 142.915985 183.052002 146.612 185.513 150.825989 C 187.201004 146.346008 189.30101 142.134003 190.576004 137.380005 C 191.624008 133.467987 192.175003 129.332001 192.786011 125.221008 C 192.787003 125.209991 192.785004 125.197998 192.786011 125.187012 C 193.347 117.127991 191.233002 110.127991 182.542007 103.863007 Z"/>
        <path id="path5" fill="#d6309d" stroke="none" d="M 192.785995 125.221008 C 192.175003 129.332001 191.623993 133.467987 190.575989 137.380005 C 189.300995 142.134003 187.200989 146.346008 185.513 150.825989 C 183.052002 146.612 180.075989 142.915985 178.112991 138.200012 C 180.294998 143.10199 183.009995 147.608002 185.513 151.622986 C 188.824997 146.563995 189.983994 140.494995 191.470993 133.657013 C 192.108994 130.720001 192.595993 127.911987 192.785995 125.221008 Z"/>
        <path id="path6" fill="#d6309d" stroke="none" d="M 174.373596 123.342987 C 174.308197 123.56601 174.234009 123.790009 174.167709 124.014008 C 174.610809 128.946014 176.080002 133.556 177.971008 137.869995 C 176.186005 133.416992 175.574997 128.184998 174.373596 123.342987 Z"/>
        <path id="path7" fill="#f03b7a" stroke="none" d="M 127.209999 103.863007 C 120.566803 105.453979 118.406502 112.661011 118.590103 121.167999 C 118.618301 121.096008 118.640503 121.011993 118.669304 120.940002 C 119.918701 124.997986 120.037399 129.585999 120.768799 133.895996 C 121.826805 140.131012 123.6091 145.506989 126.314705 150.518005 C 134.138 139.877991 135.742294 133.86499 137.065796 120.109009 C 136.876007 112.026001 134.167709 105.214996 127.209999 103.863007 Z"/>
        <path id="path8" fill="#f03b7a" stroke="none" d="M 126.314705 150.518005 C 126.246902 150.609985 126.193298 150.687012 126.124603 150.779999 C 126.1642 150.852997 126.203903 150.947998 126.243401 151.019012 C 126.316101 150.949005 126.392799 150.897003 126.465202 150.825989 C 126.410202 150.725006 126.369003 150.618988 126.314705 150.518005 Z"/>
        <path id="path9" fill="#f03b7a" stroke="none" d="M 118.669304 120.940002 C 118.640503 121.011993 118.618301 121.096008 118.590103 121.167999 C 118.820404 131.839996 122.737503 144.528015 126.124603 150.779999 C 126.193298 150.687012 126.246902 150.609985 126.314705 150.518005 C 123.6091 145.506989 121.826805 140.131012 120.768799 133.895996 C 120.037399 129.585999 119.918701 124.997986 118.669304 120.940002 Z"/>
        <path id="path10" fill="#f03b7a" stroke="none" d="M 137.065796 120.109009 C 135.742294 133.86499 134.138 139.877991 126.314705 150.518005 C 126.369003 150.618988 126.410202 150.725006 126.465202 150.825989 C 126.392799 150.897003 126.316101 150.949005 126.243401 151.019012 C 126.255302 151.040985 126.271103 151.06601 126.283005 151.088013 C 132.002304 146.977997 137.348007 132.127991 137.065796 120.109009 Z"/>
        <path id="path11" fill="#f84b50" stroke="none" d="M 128.136902 65.700989 C 124.568398 66 122.952499 72.929016 121.077797 77.302002 C 120.060997 79.674988 119.976295 82.671021 119.778496 85.442017 C 119.130196 94.528992 127.568596 99.070007 132.383499 95.471985 C 135.710205 92.987 136.700195 87.895996 136.519104 82.858002 C 136.458801 81.179016 136.359192 79.338989 135.687195 77.963013 C 133.505905 73.496002 131.927902 65.384003 128.136902 65.700989 Z"/>
        <path id="path12" fill="#e20e72" stroke="none" d="M 184.561996 74.479004 C 184.083008 74.427979 183.598999 74.444 183.104004 74.513 C 171.971207 76.052979 173.49881 99.059021 184.958008 99.059021 C 189.919998 99.059021 193.013 89.278992 191.827011 83.312988 C 190.781998 78.054993 187.915009 74.833984 184.561996 74.479004 Z"/>
        <path id="path13" fill="#f57e81" stroke="none" d="M 129.000504 38.742004 C 128.387497 38.664978 127.721504 38.742981 127.019798 39.015015 C 124.086899 40.151978 123.494202 42.458984 123.494202 47.291992 C 123.494202 51.632019 128.497101 55.539001 130.925705 52.630981 C 135.152695 47.569 133.291397 39.276978 129.000504 38.742004 Z"/>
        <path id="path14" fill="#e995bc" stroke="none" d="M 184.681 54.213989 C 184.630997 54.23999 184.555008 54.330994 184.404007 54.497986 C 181.549011 57.653015 180.498001 59.699005 180.498001 64.630981 C 180.498001 68.192993 184.406998 70.925995 186.440002 69.173004 C 191.123001 65.13501 187.959 59.333984 185.331009 55.557007 C 184.699005 54.649994 184.830002 54.135986 184.681 54.213989 Z"/>
        <g id="g1">
            <path id="path15" fill="#f57e81" stroke="none" d="M 293.437988 153.559998 L 293.437988 123.70401 L 326.653992 123.70401 L 326.653992 114.679993 L 249.373993 114.679993 L 249.373993 123.70401 L 282.205994 123.70401 L 282.205994 153.559998 L 293.437988 153.559998 Z M 317.34198 104.695984 L 317.34198 95.671997 L 270.589996 95.671997 L 270.589996 72.536011 L 259.358002 72.536011 L 259.358002 104.695984 L 317.34198 104.695984 Z"/>
            <path id="path16" fill="#f57e81" stroke="none" d="M 391.93399 67.927979 L 391.93399 153.463989 L 403.070007 153.463989 L 403.070007 67.927979 L 391.93399 67.927979 Z M 384.446014 122.167999 C 373.502014 124.18399 356.51001 124.664001 348.350006 124.664001 L 348.350006 107.287994 L 376.286011 107.287994 L 376.286011 75.223999 L 336.829987 75.223999 L 336.829987 84.151978 L 364.958008 84.151978 L 364.958008 98.359985 L 337.213989 98.359985 L 337.213989 133.880005 L 346.238007 133.880005 C 360.734009 133.880005 376.670013 132.920013 385.694 131.096008 L 384.446014 122.167999 Z"/>
            <path id="path17" fill="#f57e81" stroke="none" d="M 488.701996 152.791992 L 488.701996 143.768005 L 440.798004 143.768005 L 440.798004 138.200012 L 486.109985 138.200012 L 486.109985 116.119995 L 429.56601 116.119995 L 429.56601 124.951996 L 474.973999 124.951996 L 474.973999 130.040009 L 429.56601 130.040009 L 429.56601 152.791992 L 488.701996 152.791992 Z M 458.941986 72.056 L 419.966003 72.056 L 419.966003 81.367981 L 446.653992 81.367981 C 446.269989 83.096008 445.694 84.824005 444.925995 86.359985 L 416.317993 88.279999 L 418.238007 97.687988 L 438.686005 95.384003 C 433.022003 100.951996 425.053986 104.984009 415.742004 106.615997 L 420.734009 115.832001 C 440.894012 110.743988 458.558014 96.440002 458.941986 72.056 Z M 486.109985 111.895996 L 486.109985 67.927979 L 474.973999 67.927979 L 474.973999 86.936005 L 459.134003 86.936005 L 459.134003 96.343994 L 474.973999 96.343994 L 474.973999 111.895996 L 486.109985 111.895996 Z"/>
            <path id="path18" fill="#f57e81" stroke="none" d="M 550.622009 130.424011 C 538.142029 123.895996 530.174011 114.007996 529.790039 96.632019 L 546.590027 96.632019 L 546.590027 87.703979 L 500.98999 87.703979 L 500.98999 96.632019 L 518.174011 96.632019 C 517.885986 113.911987 510.493988 124.471985 496.574005 132.056 L 503.485992 140.216003 C 513.56604 135.320007 522.014038 125.23999 524.126038 116.503998 C 526.814026 124.76001 536.702026 134.743988 544.765991 138.679993 L 550.622009 130.424011 Z M 569.246033 153.463989 L 569.246033 67.927979 L 558.014038 67.927979 L 558.014038 98.264008 L 545.246033 98.264008 L 545.246033 107.191986 L 558.014038 107.191986 L 558.014038 114.872009 L 545.246033 114.872009 L 545.246033 123.895996 L 558.014038 123.895996 L 558.014038 153.463989 L 569.246033 153.463989 Z M 511.070007 82.135986 L 536.798035 82.135986 L 536.798035 73.208008 L 511.070007 73.208008 L 511.070007 82.135986 Z"/>
        </g>
    </g>
</svg>
